<?xml version="1.0" encoding="UTF-8"?><svg id="Layer_1" xmlns="http://www.w3.org/2000/svg" viewBox="0 23 129.19 89"><defs><style>.cls-1{fill:#fff;}</style></defs><path class="cls-1" d="M99.89,44.85c0-.46-.44-.92-.81-1.13l-12.38-7.15c-.68-.35-1.27-.24-2,.22l-5.95,3.43v-7.21c0-.58-.29-1.03-.74-1.4l-11.39-6.58h0l-1.39-.81c-.36-.21-.79-.21-1.15,0l-.13.07h0s-32.03,18.49-32.03,18.49h0s-2.02,1.16-2.02,1.16c-.35.2-.57.58-.59.98,0,0,0,.01,0,.02v39.38s.02.04.02.04c.05.45.3.87.7,1.1l4.45,2.55,29.18,16.83c.62.36,1.3.4,1.93.04l33.63-19.42c.31-.18.68-.66.68-1.04v-39.57ZM98.17,83.97l-33.52,19.39-21.04-12.13-12.49-7.2v-38.73s33.53-19.37,33.53-19.37l12.32,7.11-33.53,19.37v24.42s21.36,12.18,21.36,12.18l21.05-12.16v-10.07c0-.06-.01-.15-.03-.14l-.12.07-21.04,12.15-12.33-7.12v-14.22s33.57-19.39,33.57-19.39l12.29,7.09v38.72Z"/><polygon class="cls-1" points="52.58 57.68 63.76 65.17 64.64 78.65 65.55 65.16 97.78 45.52 64.65 63.61 52.58 57.68"/></svg>