<?xml version="1.0" encoding="UTF-8"?>
<svg id="Layer_1" xmlns="http://www.w3.org/2000/svg" version="1.1" viewBox="0 0 188.4 208.4">
  <defs>
    <style>
      .st0 {
        fill: #017aeb;
      }

      .st1 {
        fill: #fff;
      }
    </style>
  </defs>
  <path class="st1" d="M183.6,157.7c-5.3,8.9-80.7,50.9-91,50.7S8.2,164,3.2,154.9c-5-9.1-3.7-95.3,1.6-104.2C10.1,41.8,85.4-.2,95.8,0c10.4.2,84.4,44.4,89.4,53.5s3.7,95.3-1.6,104.2h0Z"/>
  <polygon class="st0" points="94.1 99.9 170.8 58.2 143.7 42.5 67.3 86.6 94.1 99.9"/>
  <polygon class="st0" points="90.5 106.4 65.5 89.6 65.5 120.8 92.4 136.3 90.5 106.4"/>
  <path class="st0" d="M97.9,106.4l-1.8,29.9,47.1-27.2.3-.2s0,.2,0,.3v23.4l-49,28.3-49.8-28.4v-56.9L122.9,30.6l-28.7-16.6L16.1,59.2v90.2l29.1,16.8,49,28.2,78.1-45.2V61.3s-74.4,45.1-74.4,45.1h0Z"/>
</svg>
